<mxfile host="app.diagrams.net" modified="2023-08-18T17:35:08.750Z" agent="Mozilla/5.0 (Windows NT 10.0; Win64; x64) AppleWebKit/537.36 (KHTML, like Gecko) Chrome/116.0.0.0 Safari/537.36" etag="pagjiLtUGyFmqM83H8QZ" version="21.6.8" type="device">
  <diagram name="Página-1" id="3SOcdCPFmsYaB7tf9DhU">
    <mxGraphModel dx="1909" dy="1044" grid="1" gridSize="10" guides="1" tooltips="1" connect="1" arrows="1" fold="1" page="1" pageScale="1" pageWidth="827" pageHeight="1169" math="0" shadow="0">
      <root>
        <mxCell id="0" />
        <mxCell id="1" parent="0" />
        <mxCell id="JFVcLRod_tm6YKUsJeIu-37" style="edgeStyle=orthogonalEdgeStyle;rounded=0;orthogonalLoop=1;jettySize=auto;html=1;exitX=0.5;exitY=0;exitDx=0;exitDy=0;exitPerimeter=0;entryX=0;entryY=0.25;entryDx=0;entryDy=0;" edge="1" parent="1" source="JFVcLRod_tm6YKUsJeIu-25" target="JFVcLRod_tm6YKUsJeIu-35">
          <mxGeometry relative="1" as="geometry" />
        </mxCell>
        <mxCell id="JFVcLRod_tm6YKUsJeIu-25" value="&lt;font style=&quot;font-size: 15px;&quot; face=&quot;Tahoma&quot;&gt;Atualizar tabela&lt;/font&gt;" style="shape=umlActor;verticalLabelPosition=bottom;verticalAlign=top;html=1;" vertex="1" parent="1">
          <mxGeometry x="330" y="525" width="80" height="125" as="geometry" />
        </mxCell>
        <mxCell id="JFVcLRod_tm6YKUsJeIu-35" value="&lt;h1 style=&quot;text-align: center; box-sizing: border-box; width: 100%; background: rgb(228, 228, 228); padding: 2px;&quot;&gt;&lt;font style=&quot;font-size: 24px;&quot;&gt;Tabela&amp;nbsp;&lt;/font&gt;&lt;/h1&gt;&lt;pre style=&quot;&quot;&gt;&lt;span style=&quot;background-color: initial;&quot;&gt;&lt;font style=&quot;&quot; face=&quot;Verdana&quot;&gt;&lt;span style=&quot;font-size: 24px;&quot;&gt;&amp;nbsp;&lt;/span&gt;&lt;font style=&quot;font-size: 13px;&quot;&gt;clube                               pts  pj  vit  e  der  gm&lt;/font&gt;&lt;/font&gt;&lt;/span&gt;&lt;/pre&gt;&lt;h4 style=&quot;font-size: 18px;&quot;&gt;&lt;font face=&quot;Tahoma&quot; style=&quot;font-size: 18px;&quot;&gt;&lt;font style=&quot;font-size: 18px;&quot;&gt;&amp;nbsp; 1&lt;font style=&quot;font-size: 18px;&quot;&gt; botafogo&amp;nbsp; &amp;nbsp; &amp;nbsp; &amp;nbsp; &amp;nbsp; &amp;nbsp; &amp;nbsp; &lt;/font&gt;&lt;font style=&quot;font-size: 18px;&quot;&gt;&lt;font style=&quot;font-size: 18px;&quot;&gt;47&amp;nbsp; 19&lt;/font&gt;&lt;br&gt;&lt;/font&gt;&lt;/font&gt;&lt;/font&gt;&lt;font face=&quot;Tahoma&quot; style=&quot;font-size: 18px;&quot;&gt;&lt;font style=&quot;font-size: 18px;&quot;&gt;&lt;span style=&quot;background-color: initial;&quot;&gt;&lt;font style=&quot;font-size: 18px;&quot;&gt;&amp;nbsp; 2 palmeiras&amp;nbsp; &amp;nbsp; &amp;nbsp; &amp;nbsp; &amp;nbsp; &amp;nbsp; 34&amp;nbsp; &amp;nbsp;19&lt;br&gt;&lt;/font&gt;&lt;/span&gt;&lt;/font&gt;&lt;/font&gt;&lt;font face=&quot;Tahoma&quot; style=&quot;font-size: 18px;&quot;&gt;&lt;font style=&quot;font-size: 18px;&quot;&gt;&lt;font style=&quot;font-size: 18px;&quot;&gt;&amp;nbsp; 3 grêmio&amp;nbsp; &amp;nbsp; &amp;nbsp; &amp;nbsp; &amp;nbsp; &amp;nbsp; &amp;nbsp; &amp;nbsp; &amp;nbsp;33&amp;nbsp;&amp;nbsp;&lt;/font&gt;&lt;/font&gt;&lt;font style=&quot;font-size: 18px;&quot;&gt;19&lt;br&gt;&lt;/font&gt;&lt;/font&gt;&lt;font face=&quot;Tahoma&quot; style=&quot;font-size: 18px;&quot;&gt;&lt;font style=&quot;font-size: 18px;&quot;&gt;&lt;font style=&quot;font-size: 18px;&quot;&gt;&amp;nbsp; 4 flamengo&amp;nbsp; &amp;nbsp; &amp;nbsp; &amp;nbsp; &amp;nbsp; &amp;nbsp; &amp;nbsp;32&amp;nbsp;&amp;nbsp;&lt;/font&gt;&lt;/font&gt;19&lt;br&gt;&lt;/font&gt;&lt;font face=&quot;Tahoma&quot; style=&quot;font-size: 18px;&quot;&gt;&lt;font style=&quot;font-size: 18px;&quot;&gt;&lt;span style=&quot;background-color: initial;&quot;&gt;&lt;font style=&quot;font-size: 18px;&quot;&gt;&amp;nbsp; 5 bragantino&amp;nbsp; &amp;nbsp; &amp;nbsp; &amp;nbsp; &amp;nbsp; 32&amp;nbsp;&amp;nbsp;&lt;/font&gt;&lt;/span&gt;&lt;/font&gt;19&lt;/font&gt;&lt;/h4&gt;" style="verticalAlign=top;align=left;overflow=fill;html=1;whiteSpace=wrap;" vertex="1" parent="1">
          <mxGeometry x="510" y="450" width="340" height="210" as="geometry" />
        </mxCell>
        <mxCell id="JFVcLRod_tm6YKUsJeIu-47" value="&lt;p style=&quot;margin:0px;margin-top:4px;text-align:center;&quot;&gt;&lt;b&gt;&lt;font face=&quot;Tahoma&quot;&gt;&lt;br&gt;&lt;/font&gt;&lt;/b&gt;&lt;/p&gt;&lt;p style=&quot;margin:0px;margin-top:4px;text-align:center;&quot;&gt;&lt;b&gt;&lt;font face=&quot;Tahoma&quot;&gt;ARTILHEIROS&lt;/font&gt;&lt;/b&gt;&lt;/p&gt;&lt;pre style=&quot;margin: 4px 0px 0px;&quot;&gt;&lt;b&gt;&lt;font style=&quot;font-size: 10px;&quot; face=&quot;Tahoma&quot;&gt; jogadores                                                                      gols&lt;/font&gt;&lt;/b&gt;&lt;/pre&gt;&lt;pre style=&quot;margin: 4px 0px 0px;&quot;&gt;&lt;b&gt;&lt;font face=&quot;Verdana&quot; style=&quot;font-size: 12px;&quot;&gt; 1 TIQUINHO SOARES                           13&lt;/font&gt;&lt;/b&gt;&lt;/pre&gt;&lt;pre style=&quot;margin: 4px 0px 0px;&quot;&gt;&lt;font face=&quot;Verdana&quot;&gt;&lt;b&gt; 2 DEYVERSON                                        8&lt;/b&gt;&lt;/font&gt;&lt;/pre&gt;&lt;pre style=&quot;margin: 4px 0px 0px;&quot;&gt;&lt;font face=&quot;Verdana&quot;&gt;&lt;b&gt; 2 VITOR ROQUE                                     8&lt;/b&gt;&lt;/font&gt;&lt;/pre&gt;&lt;pre style=&quot;margin: 4px 0px 0px;&quot;&gt;&lt;font face=&quot;Verdana&quot;&gt;&lt;b&gt; 3 HULK                                                   7&lt;/b&gt;&lt;/font&gt;&lt;/pre&gt;&lt;pre style=&quot;margin: 4px 0px 0px;&quot;&gt;&lt;font face=&quot;Verdana&quot;&gt;&lt;b&gt; 3 MARCOS LEONARDO                           7&lt;/b&gt;&lt;/font&gt;&lt;/pre&gt;" style="verticalAlign=top;align=left;overflow=fill;fontSize=12;fontFamily=Helvetica;html=1;whiteSpace=wrap;" vertex="1" parent="1">
          <mxGeometry x="170" y="70" width="290" height="160" as="geometry" />
        </mxCell>
        <mxCell id="JFVcLRod_tm6YKUsJeIu-49" style="edgeStyle=orthogonalEdgeStyle;rounded=0;orthogonalLoop=1;jettySize=auto;html=1;exitX=0.25;exitY=0.1;exitDx=0;exitDy=0;exitPerimeter=0;entryX=1;entryY=0.25;entryDx=0;entryDy=0;" edge="1" parent="1" source="JFVcLRod_tm6YKUsJeIu-48" target="JFVcLRod_tm6YKUsJeIu-47">
          <mxGeometry relative="1" as="geometry" />
        </mxCell>
        <mxCell id="JFVcLRod_tm6YKUsJeIu-48" value="CUIDAR DA ARTILHARIA" style="shape=umlActor;verticalLabelPosition=bottom;verticalAlign=top;html=1;" vertex="1" parent="1">
          <mxGeometry x="620" y="180" width="70" height="100" as="geometry" />
        </mxCell>
      </root>
    </mxGraphModel>
  </diagram>
</mxfile>
